<?xml version="1.0" encoding="UTF-8"?>
<svg id="Layer_1" data-name="Layer 1" xmlns="http://www.w3.org/2000/svg" viewBox="0 0 23.11 14.37">
  <defs>
    <style>
      .cls-1 {
        fill: #fff;
      }
    </style>
  </defs>
  <path class="cls-1" d="M11.56,0c-.65,0-1.28.27-1.74.74L.67,10.31C.24,10.76,0,11.35,0,11.97s.26,1.28.74,1.73c.46.44,1.07.68,1.71.67.64-.01,1.24-.28,1.68-.74l7.42-7.76,7.42,7.76c.92.96,2.44.99,3.4.07.48-.46.74-1.07.74-1.73s-.24-1.21-.67-1.66L13.29.74C12.84.27,12.21,0,11.56,0h0Z"/>
</svg>