<?xml version="1.0" encoding="UTF-8"?>
<svg id="Layer_1" data-name="Layer 1" xmlns="http://www.w3.org/2000/svg" viewBox="0 0 800 279">
  <defs>
    <style>
      .cls-1 {
        fill: #fdb913;
      }
    </style>
  </defs>
  <path class="cls-1" d="M493.74,212.47c3.66,0,7.14-1.08,9.79-3.04,3.03-2.23,4.72-5.38,4.77-8.84.1-6.84-6.31-12.33-14.6-12.5-.13,0-.26,0-.39,0-3.66,0-7.14,1.08-9.79,3.04-3.03,2.24-4.72,5.38-4.77,8.85-.1,6.84,6.31,12.32,14.6,12.5h.39Z"/>
  <path class="cls-1" d="M465.61,219.8c2.34,0,4.56-.7,6.27-1.96,1.99-1.47,3.15-3.65,3.18-5.97.07-4.55-4.09-8.21-9.46-8.32h-.25c-2.34,0-4.56.7-6.27,1.96-1.99,1.47-3.15,3.64-3.18,5.97-.07,4.55,4.09,8.21,9.46,8.32h.25Z"/>
  <path class="cls-1" d="M775.98,137.26c0-11.35-5.95-21.83-15.57-28.09,3.2-4.89,4.91-10.55,4.91-16.41,0-17.13-14.62-31.07-32.59-31.07-5.44,0-10.74,1.29-15.44,3.71-2.23-4.01-6.03-7.14-10.57-8.61.31-1.74.46-3.51.46-5.29,0-17.47-14.91-31.68-33.23-31.68-8.84,0-17.15,3.33-23.27,9.05-6.44-11.46-19.03-18.91-33.26-18.91-6.26,0-12.29,1.45-17.67,4.17-1.94.92-3.73,1.98-5.36,3.14-3.9,2.8-6.86,6.14-8.98,9.58-2.41,3.65-4.1,7.68-4.99,11.91-1.58-.32-3.2-.48-4.83-.48-4.05,0-7.94.99-11.38,2.82-1.35.61-2.68,1.37-3.95,2.33-2.75,2.09-4.66,4.66-5.83,7.22-.46,1-.8,2-1.05,2.98-.04.11-.09.23-.12.34-3.28-.66-6.62-.99-10-.99-14.79,0-28.05,6.38-36.93,16.38-1.68,1.78-3.26,3.76-4.67,5.91-2.26,3.44-4.1,7.36-5.29,11.64-1.1,3.97-1.54,7.9-1.47,11.67,0,.17-.01.34-.01.51,0,14.46,7.1,27.94,18.92,36.6-1.62,1.52-3.1,3.45-4.16,5.78-1.24,2.69-1.89,5.95-1.53,9.38.24,9.01,6.13,16.69,14.41,19.95-.84,1.15-1.61,2.42-2.29,3.83-1.6,3.31-2.61,7.38-2.42,11.85,0,.06,0,.12,0,.18,0,16.36,13.96,29.67,31.12,29.67,7.04,0,13.73-2.23,19.15-6.27,3.37,3.64,8.27,5.83,13.65,5.83,3.11,0,6.15-.77,8.82-2.18,7.61,11.88,21.15,19.27,36.1,19.27,9.72,0,19.22-3.23,26.74-9.08,5.25-4.08,9.39-9.32,12.08-15.18,3.53,2.01,7.6,3.1,11.86,3.1,4.55,0,8.98-1.29,12.73-3.64,6.54,6.14,15.45,9.7,24.73,9.7,19.39,0,35.16-15.04,35.16-33.52,0-4.74-1.06-9.41-3.07-13.69,16.54-2.94,29.11-16.81,29.11-33.42h0Z"/>
</svg>