<?xml version="1.0" encoding="UTF-8"?>
<svg id="Layer_1" data-name="Layer 1" xmlns="http://www.w3.org/2000/svg" viewBox="0 0 17.62 18.8">
  <defs>
    <style>
      .cls-1 {
        fill: #fdb913;
      }
    </style>
  </defs>
  <path class="cls-1" d="M10.53,1.29c.5.32.91.75,1.2,1.27.57-.16,1.16-.17,1.75-.03.57.11,1.09.4,1.55.86.46.46.75.99.86,1.58.14.57.13,1.15-.03,1.72.53.3.95.7,1.27,1.2.32.5.48,1.08.48,1.72s-.16,1.22-.48,1.72c-.32.5-.75.91-1.27,1.2.16.57.17,1.16.03,1.75-.12.57-.4,1.09-.86,1.55s-.97.75-1.55.86c-.6.14-1.18.13-1.75-.03-.3.53-.7.95-1.2,1.27-.5.32-1.08.48-1.72.48s-1.22-.16-1.72-.48c-.5-.32-.91-.75-1.2-1.27-.57.16-1.16.17-1.75.03-.57-.11-1.09-.4-1.55-.86s-.75-.97-.86-1.55c-.14-.6-.13-1.18.03-1.75-.53-.3-.95-.7-1.27-1.2-.32-.5-.48-1.08-.48-1.72s.16-1.22.48-1.72c.32-.5.75-.91,1.27-1.2-.16-.57-.17-1.16-.03-1.75.11-.57.4-1.09.86-1.55.46-.46.99-.75,1.58-.86.57-.14,1.15-.13,1.72.03.3-.53.7-.95,1.2-1.27.5-.32,1.08-.48,1.72-.48s1.22.16,1.72.48ZM8.84,4.94c-.41.05-.64.28-.69.69v.62c-.32.05-.62.15-.89.31-.57.32-.88.86-.93,1.62.07.73.37,1.24.89,1.51.44.23.87.4,1.31.52h.04l.07.03c.48.12.85.25,1.1.41.18.12.26.24.24.38,0,.21-.08.37-.24.48-.23.11-.52.17-.86.17-.44-.02-.89-.13-1.38-.31-.09-.05-.18-.08-.27-.1-.41-.09-.7.05-.86.41-.12.41.02.71.41.89.07.02.15.05.24.07h.03c.34.14.71.25,1.1.34v.62c.02.41.25.64.69.69.41-.05.64-.28.69-.69v-.62c.32-.05.63-.16.93-.34.55-.32.85-.87.89-1.65-.07-.73-.37-1.24-.89-1.51-.46-.25-.92-.44-1.38-.55h-.03l-.03-.03c-.48-.11-.85-.25-1.1-.41-.18-.11-.26-.22-.24-.31,0-.16.09-.3.28-.41.25-.14.54-.21.86-.21.39.02.8.09,1.24.21.41.07.69-.09.83-.48.07-.41-.09-.7-.48-.86-.28-.07-.56-.13-.86-.17v-.62c-.05-.41-.28-.64-.69-.69Z"/>
</svg>