<?xml version="1.0" encoding="UTF-8"?>
<svg id="Layer_1" data-name="Layer 1" xmlns="http://www.w3.org/2000/svg" viewBox="0 0 137.89 36">
  <defs>
    <style>
      .cls-1 {
        fill: #37364b;
      }

      .cls-2 {
        fill: #50b6a6;
      }
    </style>
  </defs>
  <polygon class="cls-2" points="32.56 27.93 30.26 30.26 23.23 30.26 23.23 28.1 19.86 28.1 19.86 30.26 19.86 33.63 31.53 33.63 35.93 29.41 35.93 12.77 32.56 12.77 32.56 27.93"/>
  <polygon class="cls-2" points="31.84 2.79 31.76 2.87 31.76 2.79 23.23 2.79 19.86 2.79 19.86 6.16 19.86 23.23 23.23 23.23 23.23 6.16 30.44 6.16 32.18 7.9 35.93 7.9 35.93 6.88 31.84 2.79"/>
  <polygon class="cls-1" points="16.53 21.59 16.53 14.41 18.91 12.02 19.19 12.02 19.19 8.65 17.51 8.65 13.15 13.01 13.15 22.99 17.51 27.35 31.87 27.35 31.87 23.98 18.91 23.98 16.53 21.59"/>
  <polygon class="cls-1" points="38.53 8.65 23.93 8.65 23.93 12.02 37.13 12.02 39.28 14.18 39.28 15.26 42.65 15.26 42.65 12.78 38.53 8.65"/>
  <polygon class="cls-1" points="39.28 21.76 37.06 23.98 36.64 23.98 36.64 27.35 38.55 27.35 42.65 23.23 42.65 20.82 39.28 20.82 39.28 21.76"/>
  <polygon class="cls-2" points="6.61 17.89 8.15 16.17 5.87 16.62 5.14 14.43 4.4 16.62 2.13 16.17 3.67 17.89 2.13 19.62 4.4 19.16 5.14 21.36 5.87 19.16 8.15 19.62 6.61 17.89"/>
  <polygon class="cls-2" points="52.17 17.89 53.71 16.17 51.43 16.62 50.7 14.43 49.96 16.62 47.69 16.17 49.23 17.89 47.69 19.62 49.96 19.16 50.7 21.36 51.43 19.16 53.71 19.62 52.17 17.89"/>
  <path class="cls-1" d="M68.58,15.82c-.82.41-1.48.5-2.04.5-1.7,0-2.85-.58-3.63-1.34-.83-.8-1.44-2.02-1.44-3.5s.61-2.67,1.44-3.47c.82-.79,2.01-1.33,3.45-1.33.61,0,1.31.12,2.21.51v2.46c-.47-.5-1.18-.98-2.16-.98-.77,0-1.4.25-1.88.72-.51.5-.87,1.25-.87,2.13,0,.96.39,1.63.8,2.04.19.19.86.78,1.99.78.55,0,1.3-.15,2.12-.96v2.45Z"/>
  <polygon class="cls-1" points="72.91 10.4 76.59 10.4 76.59 6.88 78.72 6.88 78.72 16.11 76.59 16.11 76.59 12.2 72.91 12.2 72.91 16.11 70.78 16.11 70.78 6.88 72.91 6.88 72.91 10.4"/>
  <rect class="cls-1" x="81.18" y="6.88" width="2.13" height="9.23"/>
  <path class="cls-1" d="M92.37,15.82c-.82.41-1.48.5-2.04.5-1.7,0-2.85-.58-3.63-1.34-.83-.8-1.44-2.02-1.44-3.5s.61-2.67,1.44-3.47c.82-.79,2.01-1.33,3.45-1.33.61,0,1.31.12,2.21.51v2.46c-.47-.5-1.18-.98-2.16-.98-.77,0-1.4.25-1.88.72-.51.5-.87,1.25-.87,2.13,0,.96.39,1.63.8,2.04.19.19.86.78,1.99.78.55,0,1.3-.15,2.12-.96v2.45Z"/>
  <path class="cls-1" d="M99.42,12.74l-1.13-3.1-1.15,3.1h2.28ZM100,14.37h-3.49l-.71,1.74h-2.21l3.72-9.23h1.95l3.64,9.23h-2.21l-.69-1.74Z"/>
  <path class="cls-1" d="M108.34,11.08h4.58v.1c0,1.12-.4,2.82-1.43,3.89-1.02,1.07-2.2,1.26-3.29,1.26s-2.3-.18-3.38-1.29c-.54-.55-1.36-1.67-1.36-3.52,0-1.51.55-2.71,1.33-3.5,1.13-1.18,2.53-1.34,3.63-1.34.76,0,1.73.12,2.59.69.62.42,1.16,1.07,1.49,1.65l-1.92,1.04c-.18-.36-.46-.73-.82-1-.41-.31-.89-.44-1.41-.44-.84,0-1.47.28-1.91.75-.51.54-.79,1.33-.79,2.19,0,1.05.39,1.73.77,2.12.54.55,1.16.72,1.87.72.91,0,1.4-.32,1.6-.5.07-.06.48-.41.66-1.09h-2.23v-1.72Z"/>
  <path class="cls-1" d="M117.39,9.43c-.4.39-.82,1.07-.82,2.09,0,.84.28,1.52.84,2.08.59.57,1.26.76,1.98.76.94,0,1.61-.35,2.05-.79.36-.35.8-1,.8-2.06,0-.96-.39-1.66-.8-2.08-.46-.44-1.19-.79-2.04-.79s-1.52.29-2.02.79M122.99,8.02c.87.84,1.44,2.06,1.44,3.49,0,1.23-.44,2.49-1.44,3.46-.86.83-2.02,1.36-3.57,1.36-1.73,0-2.91-.69-3.6-1.36-.88-.83-1.44-2.08-1.44-3.43s.59-2.67,1.43-3.5c.62-.62,1.77-1.36,3.61-1.36,1.44,0,2.64.44,3.57,1.34"/>
  <path class="cls-2" d="M64.76,27.77h.57c.44,0,1.41-.04,2.1-.62.5-.41.9-1.2.9-2.23s-.4-1.63-.76-1.99c-.69-.69-1.59-.79-2.24-.79h-.57v5.63ZM65.55,20.34c1.22,0,2.5.18,3.64,1.27.82.79,1.33,1.87,1.33,3.31s-.5,2.5-1.26,3.27c-1.27,1.29-2.87,1.38-3.64,1.38h-2.99v-9.23h2.92Z"/>
  <polygon class="cls-2" points="78.7 22.13 75.61 22.13 75.61 23.92 78.55 23.92 78.55 25.72 75.61 25.72 75.61 27.77 78.7 27.77 78.7 29.57 73.48 29.57 73.48 20.34 78.7 20.34 78.7 22.13"/>
  <path class="cls-2" d="M84.06,27.91h.51c.54,0,1.19-.01,1.58-.37.19-.18.3-.44.3-.77,0-.37-.15-.62-.29-.75-.37-.35-1.09-.35-1.52-.35h-.58v2.24ZM84.06,24.09h.35c.29,0,.78-.04,1.08-.26.19-.14.37-.42.37-.82s-.19-.65-.36-.77c-.3-.23-.72-.23-1.11-.23h-.33v2.09ZM84.78,20.34c.5,0,1.63.03,2.35.71.59.57.66,1.34.66,1.74,0,.36-.06.78-.3,1.18-.23.39-.55.58-.78.68.44.07.94.29,1.27.62.3.3.59.83.59,1.65,0,.93-.36,1.51-.72,1.87-.76.73-1.87.79-2.44.79h-3.47v-9.23h2.82Z"/>
  <path class="cls-2" d="M96.25,26.19l-1.13-3.1-1.15,3.1h2.28ZM96.83,27.82h-3.49l-.7,1.74h-2.21l3.72-9.23h1.95l3.64,9.23h-2.21l-.69-1.74Z"/>
  <polygon class="cls-2" points="104.83 22.13 104.83 29.57 102.7 29.57 102.7 22.13 100.69 22.13 100.69 20.34 106.84 20.34 106.84 22.13 104.83 22.13"/>
  <polygon class="cls-2" points="114.51 22.13 111.43 22.13 111.43 23.92 114.36 23.92 114.36 25.72 111.43 25.72 111.43 27.77 114.51 27.77 114.51 29.57 109.3 29.57 109.3 20.34 114.51 20.34 114.51 22.13"/>
  <path class="cls-2" d="M122.38,22.59c-.69-.62-1.29-.66-1.55-.66-.29,0-.65.04-.9.32-.14.14-.23.35-.23.58,0,.22.07.39.21.51.22.21.54.29,1.16.53l.69.26c.4.15.9.36,1.26.71.54.51.68,1.18.68,1.72,0,.96-.33,1.78-.82,2.28-.82.86-2.01.94-2.62.94-.67,0-1.25-.1-1.83-.39-.47-.24-1.01-.67-1.36-1.01l1.11-1.52c.23.23.61.55.86.71.36.22.73.33,1.16.33.28,0,.66-.06.97-.32.18-.15.33-.4.33-.75,0-.3-.12-.5-.32-.66-.25-.21-.82-.41-1.08-.51l-.76-.26c-.43-.15-.93-.35-1.29-.73-.48-.51-.55-1.16-.55-1.6,0-.82.25-1.51.8-2.08.65-.66,1.43-.84,2.28-.84.64,0,1.66.11,2.74.91l-.96,1.55Z"/>
</svg>