<?xml version="1.0" encoding="UTF-8"?>
<svg id="Layer_1" data-name="Layer 1" xmlns="http://www.w3.org/2000/svg" viewBox="0 0 63.39 66.05">
  <defs>
    <style>
      .cls-1 {
        fill: #37364b;
      }

      .cls-2 {
        fill: #50b6a6;
      }
    </style>
  </defs>
  <polygon class="cls-2" points="37.04 30.61 34.24 33.43 25.68 33.43 25.68 30.81 21.58 30.81 21.58 33.43 21.58 37.54 35.78 37.54 41.14 32.41 41.14 12.15 37.04 12.15 37.04 30.61"/>
  <polygon class="cls-2" points="36.16 0 36.07 .09 36.07 0 25.68 0 21.58 0 21.58 4.11 21.58 24.87 25.68 24.87 25.68 4.11 34.46 4.11 36.58 6.22 41.15 6.22 41.15 4.98 36.16 0"/>
  <polygon class="cls-1" points="17.53 22.89 17.53 14.14 20.42 11.24 20.76 11.24 20.76 7.13 18.72 7.13 13.42 12.44 13.42 24.59 18.73 29.9 36.2 29.9 36.2 25.79 20.43 25.79 17.53 22.89"/>
  <polygon class="cls-1" points="44.31 7.13 26.53 7.13 26.53 11.24 42.6 11.24 45.22 13.86 45.22 15.18 49.33 15.18 49.33 12.16 44.31 7.13"/>
  <polygon class="cls-1" points="45.22 23.09 42.52 25.79 42 25.79 42 29.9 44.33 29.9 49.33 24.88 49.33 21.94 45.22 21.94 45.22 23.09"/>
  <polygon class="cls-2" points="5.46 18.38 7.32 16.29 4.56 16.84 3.66 14.16 2.77 16.84 0 16.29 1.87 18.38 0 20.48 2.77 19.93 3.66 22.6 4.56 19.93 7.32 20.48 5.46 18.38"/>
  <polygon class="cls-2" points="60.91 18.38 62.78 16.29 60.01 16.84 59.12 14.16 58.22 16.84 55.46 16.29 57.32 18.38 55.46 20.48 58.22 19.93 59.12 22.6 60.01 19.93 62.78 20.48 60.91 18.38"/>
  <path class="cls-1" d="M7.53,52.1c-.82.41-1.48.5-2.04.5-1.7,0-2.85-.58-3.63-1.34-.83-.8-1.44-2.02-1.44-3.5s.61-2.67,1.44-3.47c.82-.79,2.01-1.33,3.45-1.33.61,0,1.31.12,2.21.51v2.46c-.47-.5-1.18-.98-2.16-.98-.77,0-1.4.25-1.88.72-.51.5-.87,1.25-.87,2.13,0,.96.39,1.63.8,2.04.19.19.86.78,1.99.78.55,0,1.3-.15,2.12-.96v2.45Z"/>
  <polygon class="cls-1" points="11.86 46.67 15.54 46.67 15.54 43.16 17.67 43.16 17.67 52.39 15.54 52.39 15.54 48.47 11.86 48.47 11.86 52.39 9.73 52.39 9.73 43.16 11.86 43.16 11.86 46.67"/>
  <rect class="cls-1" x="20.13" y="43.16" width="2.13" height="9.23"/>
  <path class="cls-1" d="M31.32,52.1c-.82.41-1.48.5-2.04.5-1.7,0-2.85-.58-3.63-1.34-.83-.8-1.44-2.02-1.44-3.5s.61-2.67,1.44-3.47c.82-.79,2.01-1.33,3.45-1.33.61,0,1.31.12,2.21.51v2.46c-.47-.5-1.18-.98-2.16-.98-.77,0-1.4.25-1.88.72-.51.5-.87,1.25-.87,2.13,0,.96.39,1.63.8,2.04.19.19.86.78,1.99.78.55,0,1.3-.15,2.12-.96v2.45Z"/>
  <path class="cls-1" d="M38.37,49.01l-1.13-3.1-1.15,3.1h2.28ZM38.95,50.64h-3.49l-.71,1.74h-2.21l3.72-9.23h1.95l3.64,9.23h-2.21l-.69-1.74Z"/>
  <path class="cls-1" d="M47.29,47.35h4.58v.1c0,1.12-.4,2.82-1.43,3.89-1.02,1.07-2.2,1.26-3.29,1.26s-2.3-.18-3.38-1.29c-.54-.55-1.36-1.67-1.36-3.52,0-1.51.55-2.71,1.33-3.5,1.13-1.18,2.53-1.34,3.63-1.34.76,0,1.73.12,2.59.69.62.42,1.16,1.07,1.49,1.65l-1.92,1.04c-.18-.36-.46-.73-.82-1-.41-.31-.89-.44-1.41-.44-.84,0-1.47.28-1.91.75-.51.54-.79,1.33-.79,2.19,0,1.05.39,1.73.77,2.12.54.55,1.16.72,1.87.72.91,0,1.4-.32,1.6-.5.07-.06.48-.41.66-1.09h-2.23v-1.72Z"/>
  <path class="cls-1" d="M56.34,45.7c-.4.39-.82,1.07-.82,2.09,0,.84.28,1.52.84,2.08.59.57,1.26.76,1.98.76.94,0,1.61-.35,2.05-.79.36-.35.8-1,.8-2.06,0-.96-.39-1.66-.8-2.08-.46-.44-1.19-.79-2.04-.79s-1.52.29-2.02.79M61.95,44.29c.87.84,1.44,2.06,1.44,3.49,0,1.23-.44,2.49-1.44,3.46-.86.83-2.02,1.36-3.57,1.36-1.73,0-2.91-.69-3.6-1.36-.88-.83-1.44-2.08-1.44-3.43s.59-2.67,1.43-3.5c.62-.62,1.77-1.36,3.61-1.36,1.44,0,2.64.44,3.57,1.34"/>
  <path class="cls-2" d="M3.71,64.04h.57c.44,0,1.41-.04,2.1-.62.5-.41.9-1.2.9-2.23s-.4-1.63-.76-1.99c-.69-.69-1.59-.79-2.24-.79h-.57v5.63ZM4.5,56.61c1.22,0,2.5.18,3.64,1.27.82.79,1.33,1.87,1.33,3.31s-.5,2.5-1.26,3.27c-1.27,1.29-2.87,1.38-3.64,1.38H1.58v-9.23h2.92Z"/>
  <polygon class="cls-2" points="17.65 58.41 14.57 58.41 14.57 60.2 17.5 60.2 17.5 61.99 14.57 61.99 14.57 64.04 17.65 64.04 17.65 65.84 12.44 65.84 12.44 56.61 17.65 56.61 17.65 58.41"/>
  <path class="cls-2" d="M23.01,64.18h.51c.54,0,1.19-.01,1.58-.37.19-.18.3-.44.3-.77,0-.37-.15-.62-.29-.75-.37-.35-1.09-.35-1.52-.35h-.58v2.24ZM23.01,60.36h.35c.29,0,.78-.04,1.08-.26.19-.14.37-.42.37-.82s-.19-.65-.36-.77c-.3-.23-.72-.23-1.11-.23h-.33v2.09ZM23.73,56.61c.5,0,1.63.03,2.35.71.59.57.66,1.34.66,1.74,0,.36-.06.78-.3,1.18-.23.39-.55.58-.78.68.44.07.94.29,1.27.62.3.3.59.83.59,1.65,0,.93-.36,1.51-.72,1.87-.76.73-1.87.79-2.44.79h-3.47v-9.23h2.82Z"/>
  <path class="cls-2" d="M35.2,62.46l-1.13-3.1-1.15,3.1h2.28ZM35.78,64.1h-3.49l-.7,1.74h-2.21l3.72-9.23h1.95l3.64,9.23h-2.21l-.69-1.74Z"/>
  <polygon class="cls-2" points="43.78 58.41 43.78 65.84 41.65 65.84 41.65 58.41 39.65 58.41 39.65 56.61 45.79 56.61 45.79 58.41 43.78 58.41"/>
  <polygon class="cls-2" points="53.47 58.41 50.38 58.41 50.38 60.2 53.31 60.2 53.31 61.99 50.38 61.99 50.38 64.04 53.47 64.04 53.47 65.84 48.25 65.84 48.25 56.61 53.47 56.61 53.47 58.41"/>
  <path class="cls-2" d="M61.34,58.87c-.69-.62-1.29-.66-1.55-.66-.29,0-.65.04-.9.32-.14.14-.23.35-.23.58,0,.22.07.39.21.51.22.21.54.29,1.16.53l.69.26c.4.15.9.36,1.26.71.54.51.68,1.18.68,1.72,0,.96-.33,1.78-.82,2.28-.82.86-2.01.94-2.62.94-.67,0-1.25-.1-1.83-.39-.47-.24-1.01-.67-1.36-1.01l1.11-1.52c.23.23.61.55.86.71.36.22.73.33,1.16.33.28,0,.66-.06.97-.32.18-.15.33-.4.33-.75,0-.3-.12-.5-.32-.66-.25-.21-.82-.41-1.08-.51l-.76-.26c-.43-.15-.93-.35-1.29-.73-.48-.51-.55-1.16-.55-1.6,0-.82.25-1.51.8-2.08.65-.66,1.43-.84,2.28-.84.64,0,1.66.11,2.74.91l-.96,1.55Z"/>
</svg>