<?xml version="1.0" encoding="UTF-8"?>
<svg id="Layer_1" data-name="Layer 1" xmlns="http://www.w3.org/2000/svg" viewBox="0 0 74.47 47.61">
  <defs>
    <style>
      .cls-1 {
        fill: #50b6a6;
      }
    </style>
  </defs>
  <path class="cls-1" d="M72.59,27.22c-4.78.02-9.56.03-14.34.05-.31,0-.61,0-1.04,0,.16.43.25.75.39,1.05,1.7,3.58,4.56,5.45,8.49,5.73,1.12.08,1.58.5,1.59,1.52.02,3.5.02,6.99,0,10.49,0,1.08-.55,1.6-1.61,1.56-.91-.03-1.82-.09-2.73-.2-11.18-1.4-19.89-10.98-20.07-22.24-.12-7.83-.04-15.66-.04-23.49,0-1.25.46-1.68,1.81-1.68,9.19,0,18.39,0,27.58,0,1.45,0,1.84.41,1.84,1.88,0,7.8,0,15.61,0,23.41,0,1.51-.39,1.91-1.88,1.92h0Z"/>
  <path class="cls-1" d="M0,23.97C0,16.59,0,9.2,0,1.82,0,.44.43,0,1.8,0,10.86,0,19.92,0,28.99,0c1.41,0,1.81.4,1.81,1.78,0,7.72,0,15.44,0,23.16,0,1.51-.37,1.88-1.85,1.88-4.68.02-9.37.03-14.05.05-.3,0-.61,0-1.08,0,.16.44.24.73.37,1.01,1.66,3.55,4.47,5.38,8.35,5.67,1.21.09,1.58.49,1.58,1.7,0,3.37,0,6.74,0,10.11,0,1.07-.51,1.62-1.56,1.55-1.43-.09-2.89-.15-4.29-.45C7.47,44.19.03,34.99,0,23.97H0Z"/>
</svg>