<?xml version="1.0" encoding="UTF-8"?>
<svg id="Layer_1" data-name="Layer 1" xmlns="http://www.w3.org/2000/svg" viewBox="0 0 111.32 29.7">
  <defs>
    <style>
      .cls-1 {
        fill: #6bb4a7;
      }
    </style>
  </defs>
  <polygon class="cls-1" points="19.2 14.85 25.77 7.47 16.04 9.41 12.89 0 9.73 9.41 0 7.47 6.57 14.85 0 22.23 9.73 20.29 12.89 29.7 16.04 20.29 25.77 22.23 19.2 14.85"/>
  <polygon class="cls-1" points="47.71 14.85 54.29 7.47 44.55 9.41 41.4 0 38.25 9.41 28.52 7.47 35.09 14.85 28.52 22.23 38.25 20.29 41.4 29.7 44.55 20.29 54.29 22.23 47.71 14.85"/>
  <polygon class="cls-1" points="76.23 14.85 82.8 7.47 73.07 9.41 69.92 0 66.76 9.41 57.03 7.47 63.6 14.85 57.03 22.23 66.76 20.29 69.92 29.7 73.07 20.29 82.8 22.23 76.23 14.85"/>
  <polygon class="cls-1" points="104.74 14.85 111.32 7.47 101.58 9.41 98.43 0 95.28 9.41 85.55 7.47 92.12 14.85 85.55 22.23 95.28 20.29 98.43 29.7 101.58 20.29 111.32 22.23 104.74 14.85"/>
</svg>